<svg width="64" height="64" viewBox="0 0 64 64" fill="none" xmlns="http://www.w3.org/2000/svg">
<rect x="0.5" y="0.5" width="63" height="63" rx="31.5" fill="#FA5D36"/>
<rect x="0.5" y="0.5" width="63" height="63" rx="31.5" stroke="#FBFBFB"/>
<path d="M49.4133 24L34.6667 9.25329C34.292 8.87811 33.7836 8.66709 33.2533 8.66663H21.3333C19.3884 8.66663 17.5231 9.43924 16.1479 10.8145C14.7726 12.1898 14 14.055 14 16V48C14 49.9449 14.7726 51.8101 16.1479 53.1854C17.5231 54.5607 19.3884 55.3333 21.3333 55.3333H42.6667C44.6116 55.3333 46.4769 54.5607 47.8521 53.1854C49.2274 51.8101 50 49.9449 50 48V25.3333C49.979 24.8309 49.7695 24.3549 49.4133 24ZM35.3333 15.4933L43.1733 23.3333H35.3333V15.4933ZM42.6667 51.3333H21.3333C20.4493 51.3333 19.6014 50.9821 18.9763 50.357C18.3512 49.7319 18 48.884 18 48V16C18 15.1159 18.3512 14.2681 18.9763 13.6429C19.6014 13.0178 20.4493 12.6666 21.3333 12.6666H31.3333V25.3333C31.3402 25.8616 31.5532 26.3663 31.9268 26.7399C32.3003 27.1135 32.805 27.3264 33.3333 27.3333H46V48C46 48.884 45.6488 49.7319 45.0237 50.357C44.3986 50.9821 43.5507 51.3333 42.6667 51.3333Z" fill="#FBFBFB"/>
<path d="M35.9734 39.6C34.3336 38.5711 33.0996 37.0074 32.48 35.1734C33.0542 33.4577 33.2275 31.6332 32.9867 29.84C32.9098 29.3883 32.6895 28.9733 32.3584 28.6565C32.0273 28.3398 31.6029 28.138 31.1482 28.0812C30.6935 28.0243 30.2326 28.1154 29.8337 28.3409C29.4348 28.5665 29.1191 28.9145 28.9334 29.3334C28.6298 31.4891 28.8587 33.6865 29.6 35.7334C28.5872 38.0994 27.4569 40.4134 26.2134 42.6667C24.32 43.7334 21.7334 45.3334 21.3334 47.1734C21.0134 48.6667 23.8134 52.5067 28.5867 44.1867C30.7092 43.3988 32.8832 42.7573 35.0934 42.2667C36.7272 43.2008 38.5497 43.7567 40.4267 43.8934C40.8577 43.9046 41.2824 43.7881 41.6473 43.5586C42.0123 43.3291 42.3013 42.9968 42.478 42.6036C42.6547 42.2103 42.7112 41.7736 42.6404 41.3483C42.5696 40.923 42.3746 40.5282 42.08 40.2134C40.96 39.0667 37.6267 39.3867 35.9734 39.6ZM23.2267 47.6C23.974 46.3212 24.9609 45.1985 26.1334 44.2934C24.32 47.1734 23.2267 47.68 23.2267 47.6267V47.6ZM31.0134 29.44C31.7067 29.44 31.6534 32.5067 31.1734 33.3334C30.8118 32.0758 30.7569 30.7499 31.0134 29.4667V29.44ZM28.6934 42.4534C29.5968 40.8049 30.3811 39.0939 31.04 37.3334C31.7465 38.648 32.7289 39.7942 33.92 40.6934C32.1309 41.1415 30.3825 41.7392 28.6934 42.48V42.4534ZM41.2267 41.9734C41.2267 41.9734 40.7467 42.56 37.68 41.2267C41.0134 41.0134 41.5734 41.7867 41.2267 42V41.9734Z" fill="#FBFBFB"/>
</svg>
